<?xml version="1.0" encoding="UTF-8" standalone="no"?>
<!-- Created with Inkscape (http://www.inkscape.org/) -->

<svg
   version="1.1"
   id="svg2"
   width="5461.3335"
   height="5461.3335"
   viewBox="0 0 5461.3335 5461.3335"
   sodipodi:docname="cupra-logo1.ai"
   xmlns:inkscape="http://www.inkscape.org/namespaces/inkscape"
   xmlns:sodipodi="http://sodipodi.sourceforge.net/DTD/sodipodi-0.dtd"
   xmlns="http://www.w3.org/2000/svg"
   xmlns:svg="http://www.w3.org/2000/svg">
  <defs
     id="defs6">
    <clipPath
       clipPathUnits="userSpaceOnUse"
       id="clipPath16">
      <path
         d="M 0,4096 H 4096 V 0 H 0 Z"
         id="path14" />
    </clipPath>
  </defs>
  <sodipodi:namedview
     id="namedview4"
     pagecolor="#ffffff"
     bordercolor="#000000"
     borderopacity="0.25"
     inkscape:showpageshadow="2"
     inkscape:pageopacity="0.0"
     inkscape:pagecheckerboard="0"
     inkscape:deskcolor="#d1d1d1" />
  <g
     id="g8"
     inkscape:groupmode="layer"
     inkscape:label="cupra-logo1"
     transform="matrix(1.3333333,0,0,-1.3333333,0,5461.3333)">
    <g
       id="g10">
      <g
         id="g12"
         clip-path="url(#clipPath16)">
        <g
           id="g18"
           transform="translate(2610.5605,2830.3262)">
          <path
             d="m 0,0 -313.364,-153.317 191.01,-73.293 c 39.338,-14.957 86.157,-34.253 103.358,-80.772 17.201,-46.518 -8.377,-89.746 -31.262,-126.392 l -104.704,-163.339 c -123.751,-193.752 -247.6,-387.356 -371.55,-580.809 v 179.493 c 47.465,149.577 93.635,299.155 138.508,448.732 12.664,42.679 25.229,85.359 37.693,128.038 7.48,25.727 2.694,41.134 -22.136,53.399 l -190.562,93.785 -189.814,-93.635 c -24.829,-12.265 -29.915,-27.671 -22.137,-53.399 12.365,-42.779 24.929,-85.458 37.693,-128.038 44.674,-150.176 90.844,-299.753 138.509,-448.732 v -179.493 c -124.149,193.454 -247.999,387.056 -371.55,580.809 l -104.704,163.338 c -23.035,36.049 -48.912,78.678 -31.262,126.394 17.65,47.714 64.019,65.664 103.358,80.771 l 191.01,73.293 -313.364,153.317 97.674,-163.787 -161.544,-62.075 c -113.18,177.199 -226.211,354.598 -339.092,532.196 C -1206.641,192.506 -885.049,77.481 -562.561,-32.758 -239.623,77.481 81.52,192.356 403.111,306.484 290.43,129.085 177.448,-48.114 64.169,-225.114 L -97.375,-163.04 0.299,0.748"
             style="fill:#000000;fill-opacity:1;fill-rule:nonzero;stroke:none"
             id="path20" />
        </g>
        <g
           id="g22"
           transform="translate(2426.4873,959.5156)">
          <path
             d="m 0,0 v 311.977 h 510.695 c 47.429,0 85.921,-29.033 85.921,-72.938 v -64.522 c 0,-45.081 -30.011,-75.613 -60.412,-75.613 L 604.184,-0.13 H 493.276 L 434.562,94.989 H 99.295 V -0.13 Z m 99.295,243.605 v -73.264 h 393.916 c 8.024,-0.294 14.782,5.939 15.136,13.961 v 45.276 c -0.354,8.022 -7.112,14.256 -15.136,13.961 z"
             style="fill:#000000;fill-opacity:1;fill-rule:evenodd;stroke:none"
             id="path24" />
        </g>
        <g
           id="g26"
           transform="translate(2260.3877,1271.4258)">
          <path
             d="m 0,0 c 63.086,0 85.92,-29.031 85.92,-72.938 v -64.521 c 0,-43.906 -19.571,-79.527 -85.92,-79.527 h -415.642 v -95.119 h -96.75 V 0 Z m -415.641,-141.569 h 398.483 c 8.024,-0.294 14.782,5.939 15.136,13.961 v 45.276 c -0.354,8.021 -7.112,14.256 -15.136,13.961 h -398.483 z m 1856.652,-170.536 h -96.554 v 94.989 H 939.972 v -95.12 h -96.555 l -0.849,232.644 c 0,43.906 38.492,79.528 85.921,79.528 h 510.696 c 0.913,-0.653 1.435,-0.329 1.5,0 z m -96.554,170.796 V -68.24 H 954.585 c -8.023,0.295 -14.782,-5.94 -15.136,-13.961 v -58.716 c 0,0.652 265.852,-0.062 405.008,-0.392 M -591.658,0.066 v -232.644 c 0,-43.906 -38.491,-79.527 -85.92,-79.527 h -425.493 c -47.429,0 -85.92,35.621 -85.92,79.527 V 10e-4 h 102.491 v -212.746 c 0.318,-8.028 7.083,-14.28 15.112,-13.962 h 0.024 361.949 c 8.024,-0.294 14.782,5.94 15.135,13.962 V 10e-4 Z m -677.513,-312.171 h -510.696 c -47.428,0 -85.92,35.621 -85.92,79.527 v 153.052 c 0,43.906 38.492,79.527 85.921,79.527 h 510.695 v -85.398 h -493.537 c -8.062,0.397 -14.919,-5.815 -15.317,-13.876 -0.01,-0.137 -0.012,-0.275 -0.015,-0.413 v -113.32 c 0.353,-8.021 7.112,-14.256 15.136,-13.962 h 493.733 z"
             style="fill:#000000;fill-opacity:1;fill-rule:nonzero;stroke:none"
             id="path28" />
        </g>
      </g>
    </g>
  </g>
</svg>
